<mxfile host="app.diagrams.net" modified="2020-07-11T03:45:19.971Z" agent="5.0 (Macintosh; Intel Mac OS X 10_15_5) AppleWebKit/537.36 (KHTML, like Gecko) Chrome/83.0.4103.116 Safari/537.36" etag="YOIYVQftuA6ydR_HnQxE" version="13.4.0" type="github">
  <diagram id="0eMxlf5sIojxwnA0_T-_" name="Page-1">
    <mxGraphModel dx="2066" dy="1105" grid="1" gridSize="10" guides="1" tooltips="1" connect="1" arrows="1" fold="1" page="1" pageScale="1" pageWidth="827" pageHeight="1169" math="0" shadow="0">
      <root>
        <mxCell id="0" />
        <mxCell id="1" parent="0" />
        <mxCell id="DEd523hwMIVkpMCxUQCg-1" value="" style="shape=image;imageAspect=0;aspect=fixed;verticalLabelPosition=bottom;verticalAlign=top;image=data:image/png,iVBORw0KGgoAAAANSUhEUgAAARkAAACFCAYAAABvw4ybAAABCWlDQ1BJQ0MgUHJvZmlsZQAAKJFjYGCSSCwoyGESYGDIzSspCnJ3UoiIjFJgf8LAzsANhIoM4onJxQWOAQE+DEAAo1HBt2sMjCD6si7ILEx5vIArJbU4GUj/AeKk5IKiEgYGxgQgW7m8pADEbgGyRZKywewZIHYR0IFA9hoQOx3CPgBWA2FfAasJCXIGsl8A2XxJEPYPEDsdzGbiALGh9oIAh7OnqwLQ7yQ6nTAoSa0oAdHO+QWVRZnpGSUKjsAQSlXwzEvW01EwMjAyYGAAhTdYMSMci8DFkABCrGYxA4POtv///69FiPnlAsNflYGBJQohpn0MSADFzqsmlxaVQY1hZDJmYCDEBwDvsEl+735cTwAAADhlWElmTU0AKgAAAAgAAYdpAAQAAAABAAAAGgAAAAAAAqACAAQAAAABAAABGaADAAQAAAABAAAAhQAAAACAn8mUAAAmH0lEQVR4Ae1dB3xUxfb+ICE9hIQQEkhCIAkdQm9SBQxFUGmiKCAWxKc+23v/p76ngF1EwYpdwQaoVAu9S+8BQiiBJIQ0SG+QwP+cibts302DzXIOv7D3Tp9v7v3umTP3nqlVXFx8FSKCgCAgCFQTArWrqVwpVhAQBAQBhYCQjFwIgoAgUK0ICMlUK7xSuCAgCAjJyDUgCAgC1YpAlZDMntPncPx8RpU2ND0nHwu27Fd/v+2LrXTZ5zNz8ceBuEqXc6MKWHv4JM5mZBlVH5+Wib/izhqFVyaAVwIW7ziM3KLiyhQjeQUBhYBVkjmcmIL3ft+qEs/5YxsOnj1vBN1KIoGdJxKNwisTUKsW4FS7NvgmWrrnaGWKUnnPpGfiu637K11OVRYQn3YRc//4y6YiF++MQVyyMZHzePyy84hNZdia6OrVq/hkzU5k5RfZmkXSCQJmEbBKMtuOJyDQxxslV65gQ8xpRATWNyrsv3cNwITeUUbhlQnw9/bEvbdE4ZYWTSpTjF3nvZhXiK3Hz1SqjSO7tMJb9w6pVBmSWRCoTgSczRX+5YY92B+fjIQLWfD1dMeGo6dRVFKC//v+T9xLhNKreROwBrN87zFVxMjOrXB7p5ba4o6eS8Nna3dhQJtm+OmvQ6jn6YaJfTuhZ2SoNk1yZo56Yh5JTEUpPT07NW2El0cP1MZbOmDtJjUrD1MHdVPJjien42N6+s6ddLs6v1RSig9WbceWY/Hw9fJAbxNktYLa/suuI8igqRmT59PDe6OJfz1L1ZqMKyUC3nkyEX/SdGx097aIahKkSPnj1TvAU8ms/EI09quLmWMHo0FdT5y7mIP/LlqDwkuXlbbwwLxfVLlDoiJxd8/26vgAaSjvk5ZzIa8AA1o3A9ehKydSMjBrxRYV1KJRAzxLbdeV06mkJf35F06lXIAf9f8eIuyhHZrrJrF6fDghBTN+WYf8oku4s2trbduenv8b+rYKw8C2Eajr7mq1HElwcyNglmT4ouoRGYIXflyN1+6+DT+Tut4uJBB3UThftCzRdFPc2iYcbyzbCH4q60rRpRLEJKUiMtAfnzx4B36nG3AekYCGZIoul+CZBb+jY1gQ5k4egQC6+dbFnNItwuIx18d2G40UUnkJOjYLLotvkln3DcXlkit4bckGgKZgGll16AS+3bwPz9/ZHy2CGtCUIwazV27B+9QWW4WnYEwsa2NOopFvXQxuF4HmQf4qO9cfey4dHz0wEl5uLjhGJOji7KTiGhHhfPrQndhHJM518jGLU+1rDXxz6UYihRa4g/BmkmbS0JXwhvUxZ+LtRPTHiOCSdKNQUnoFLy5cja7hwZg+ZiD2EtHNWrEZof4+aBPcUC+tpZON9GCZMWYQ0nPz8RyN1SDqX/2/CWs14ff1xr3o3LQxhhB5cV21eY4rIggYIGB2usQXU0ZuAT2VAxFc3wd8Q/VpGaaOPVzrqGLqODmBj9l2Ykp4bj+hTwfSYtwxgrScxAvZ6snMabfHJeAClf+P23oihMp3reOMYR1bmCqmQmG7SLNgLYpJrnVwAPq0aqpXzhLSYNqFBpI2UQLWGsICfHGSnvqmjKt6GenkCJHnY18uw0uL18KTCOSDySMVOY0gbc7dpQybnIIisDaVU1iMWnTztW4cAB8PN1UU34pMOHWcCDc64WP+0+DIWGdS/gm9CTvKM7FPR6MbmG9oxt7F2fg5wVpkanYeaY4dlRbK5BBBOGw4ctqwKxbPh9OYsQbWgTSzsAa+ZI9LUem7EaHwFPmnf96DHs1D8fOOGNzz/k/qQWSxQIm8KREwvkL/hmHh9kPKmFuHLn4+PkYXLhuBr/w9rbEFrXoe7uom4bTef6vVuXTTMYGlZOXShe+nnvK2lFXeNKxFDWwbrs0W0dAPW2LjtefnqX4mP11DNt9UxaQRWZM8mj7wTdyycQME+/nAz9vdKAsTJpPo418vVxrKsI4tcR+RhkabMcqgE8DTRyZeZyYhEiaTwHreOiksH/L0j8mJ7VoaiaTpID80yiNNiVg0wuOXU6hvCPYgQg2h/oeQhnSKjNhphImIIGCIgFmSuXLlKmJJxWcbwwl6wofUrwdn0liu0j9bxZL2XN/bA2fSslBMdh5XE09jTR2uRHKXSf03FHcXZ2XT0ISn0BK1rvBNlXgxWxvEWpSu+FP9bH+ZNri7brBNx90jQrDwqXuwg1bUeLrEq2696InOGkPHsEZK6/B0dcGjVPZU+jtEmtKMn9ep+nSJrzZNjxhnQ4mgKRcvuTOhs8bCGlFaju03MJNnNhECa1Eamwn3n4lLV3jKyITEtrBWpGkZCmtgpiSJylpDS+o8JeRx4OnS14+O1mpqpvJI2M2LgOl5DuHBNwPbEh4c0EU9EQe2C1fGQ56DV4V0oxuVn+o/bjuoJYujSWlGRXegm5a1Dp7K6Ep7murwtIVvJNYsDO053cJDsO34WWV0ZY3C8F2SQWS05HheImfhW31v/DkjA6uKNPEfEy4bk1+9ezC+nTYGTQP88NGqHdh/JlmlZsMsa0V8m7IdxIs0Ab4hdYVtQXn0Loph39iuw+S6nm5ibtcfB44rO4tuXkvHLckQ7OXmCjZsM1GxUZw1Ubab6MqKPcfABn62XZVH/u+HPxXmbO/5/JFRGN2trRBMeQC8ydLqX/U6nWejZKe/CWU/3XzPGKxecNLxNA+/QqseuYWXsOdUkjJChjXww9sThuiUZPqQ1flX6AZ9a/kmNadndZynBV9OHa2XgYnu8eiemPnLevU0/9+oW9WyNq+otCdbwfi5P4K1Bn6anky9RkRMkmyQvfeDhWra0ZM0jRiahmhkbM92yKRVn0c+X4IAH0/kUR8a1vPCx1Pu0CSx+Zc1h3E92qk/zSrQxiPxWEYrYAE+XuqlNibnnrQipyvcXybxN5dtoqlMvlrBmdyvsyIm1oBmkVH4I1qhCiWNy1ALeeXX9Yoc2IBeTJrOuDk/qKK/mTZW4fgCGbRfJ+MxG7SZiFkjrarXAeb/Y6zWfqTbHzkWBEwhUMseXD3wMm0pTRt4ham8wsvDTFAao6lhfl6BquvhanZKxisxKWRL8KEyNHYjwzIqes4EwHaQICIvc+2zVDZPk7LIAFwRXLhcNryn0DK/n5e7MqxbqkviBIHqQsAuSKa6OiflCgKCwI1HwKxN5sY3TVogCAgCjoCAkIwjjKL0QRCwYwSEZOx4cKRpgoAjICAk4wijKH0QBOwYASEZOx4caZog4AgICMk4wihKHwQBO0ZASMaOB0eaJgg4AgJCMo4witIHQcCOERCSsePBkaYJAo6AgJCMI4yi9EEQsGMEhGTseHCkaYKAIyAgJOMIoyh9EATsGAEhGTseHGmaIOAICAjJOMIoSh8EATtGQEjGjgdHmiYIOAICQjKOMIrSB0HAjhEQkrHjwZGmCQKOgICQjCOMovRBELBjBIRk7HhwpGmCgCMgICTjCKMofRAE7BgBIRk7HhxpmiDgCAgIyTjCKEofBAE7RkBIxo4HR5omCDgCAkIyjjCK0gdBwI4REJKx48GRpgkCjoCAkIwjjKL0QRCwYwSEZOx4cKRpgoAjICAk4wijKH0QBOwYASEZOx4caZog4AgICMnYMIo5OTkoLCw0SpmZmYlLly4ZhRsGcN4TJ04gOTnZMErOBQGHR8Amkjlwaj9OJZ+ssWB8uyMFKTnWycBUB0tKSjBjxkxkZ2cbRW/YsBFLliw1CtcNSE1NxTPPPIt58z5VRKMbJ8eCwM2AgE0ks2bfauw9ubdCeCzc9CMOxx+qUN6qyvT8snicTDfWRGwpf+vWrQgJCUZgYKBR8kGDBmLz5s3Izc0zitMEHDx4EH5+fpg9+x3069dPEyy/gsBNg4BNJPP0qGcxuveYCoFy8PQBpGSmVChvVWU6PbM7ejXzKXdxV69excqVv2Hw4MEm89atWxdRUe2xevUqk/EcmJeXb5KgzGaQCEHAwRBwttSf1ftWYdWeP1SS6C5DcVunaG3yuKTjmL/uW/Ru0xtLtv0KH08fjOs7Hl2ad1Vpvlr1JQ6e3o/UzFT1t3LnchX+9kOz4VrHVVuOqYO84lL0nr0fkQHu2H46B88OCsFHm86hU4g3Pp/QHD7uztgRn4N/LzmN2NQCuDrXQo+mdfH+2EgE+bhoi3zspxPYk5Crzufd05zye2njHlgQiy6h3vgt5iIOncvD6I4NMPP2MFW2JlFaWhoyMjIQHh6hCTL6jYiIxLZtWzF69GijOA4oLS2Bk5OTyTgJFARuBgQsajIDom7FK5NeRwOfAGTlZenhUXS5GLGJx5B8IRlMHN1b9sS3a77Wppk0eDLeefhdhAU2xdi+49Qxn1sjGC7gylXgWEoB/jU4FBN7BOJDIpjtz3VSdpX1cWXtcHWujdfvaIqk13ti33+6wMPFCZPnx2rr54NZo5ph7ZNRSLxYhIJLpXpxZy8UY86Gc3hhSCg2Pd0Ba2MzsepYpl6apKQk1KtXD25u5kkxKCgQ584lg7UeQ2Gj8NGjx9C8eaRhlJwLAjcNAhY1mTpOdcB/TrVNP4n5xhrTZyzqevgguvMQfL9+ATLzMuHr5avycL7atWrRsTPqOF/TMGxFt0OwF06kFSDc3x0NvOsozSYlu8yA2/FvreR0RhFikvNVmtVHL+oV7UnEw1KL2mBKhrfxQ+/wsmlUdCs/bD6RhXGdGmiTZmRcgK+vr/bc1AHHFxUVqWmRt/c1TWnOnDk4c+YsBgzojz59+pjKKmGCwE2BgEWSsYaAD5ELEwyLl3vZDZZXmKtIxlpeW+JdnGrBxak2EV0ZSfBvUckVlXUvTYMmfhuLUF9XtG7kifTcy8i/VBZnS9mcpnWQpzapr6czjp7P157zQUBAA1y4cEEvzPCE493d3aFLMJzm4YcfRmzscSxYsABhYWFku4kyzCrngsBNgYDF6ZJVBMxoCLr5ateqTdOf8t38uvnNHb+9JhETuzfEH4+3x+xR4ehJNpnyirXmBwcHw9w7Mpq6zp9PQePGjTWn2l9PT0907twJHTt2xN69FVuZ0xYmB4JADUagciRjQ8dbhLRCzJnDuFx62YbUtie5XHqV7Cxl5JVANpf5O6t+Bcvf3x8NGzZEXFyc2YZxXNu2bc3Ge3t7Iz+/wGy8RAgCjo6AxenSI3MfwpUrV8BTIH4hb/XeVQgNCMVLE6bbjMvADoOwgFahHpnzIBlHgU//+RkZf91szm8u4b8Hh2Dqj3H4fncq8mk16skBwThyPkGbfPfZXIz74og6zywowd1fHIULrUJN6RWE/w1tok1n6YBtOSNHjqAl6jUmpzsXL2aSYfcoJk2aaLYYLy9P8CqViCBwsyJQq7i42HhZpAahkZRZjEb1XMnAXD2NZpJ9/vkX8MQTTyA4WH9atGjRYjg7O2HUqFFmK+c3fmfOfEW9kBcdHY3evW8xm1YiBAFHRKDGk8z1GJSiomJ614UM0HXq6FXH3yS5uhLB1bY86+SlbCYbNzc3NGhwbfVKrzA5EQQcFAEhGQcdWOmWIGAvCFh+BNtLK6UdgoAgUGMREJKpsUMnDRcEagYCQjI1Y5yklYJAjUVASKbGDp00XBCoGQgIydSMcZJWCgI1FgEhmRo7dNJwQaBmICAkUzPGSVopCNRYBCx+VlBje+VADWdn5exKgiUoKEjbM34RMCurzLeOr6+fRZ832kxyIAjcAARqLMnEJsYivygPnSO73ADYrl+V3333PbmMiIWXlxfeeON17dvF7Axr0aJFynPfY489pr74vl6tys5NxanEvWgbeStc6Du0Q3FrEeAXhkD/iCprwuY939HX+2WOxnp3ugfOTtf8EeXkpWPfsd9VXd4e9dG5ze1VVu/1KCjh/GGcTtqnqgpu2BoRoV0tVnvm3AGU0AfG1tJZLMTGyNIrJTgYuxphjTvAz6eRamcp1R3ZpLuNJRgnq7HTpf3k2HzToY3GPbKjEPasx/5kKivR0bfhrbfe1BIMl8duJDiMfd5cbzmfcRJL17+FwuIcVfXvm+fi2Omt2mb8uvZ1LFo1Q3vOBx/+MBnb9v+kF2bppDY5PLtcUoz1O79CSYnBThP04SrHp12Ix87DSywVY6dxZe0/Hv8XTpzdYbWNsfHbEHNyvVG6NX99iq9+fVIv/FDcGrz//f0mPTXqJTRzUkKY89gmpsSoFLsOL8XWfT+aSW1bcI0lGdu6d2NT8TYqe/eWPbFubEtqXu2svfRob/rD07qe/ujb+T60bNa75nWMWhwa1Fa1P6hB1btlbRs5kAjmCo6c3GA32Nj1dIl3Ofhm9VfkSzhWqc7tm0bhuTH/1oJXSur0vJUfY0fsDrQMaYkJt96PkAYhKv54Uiy+prxJ6Ynk+rMOxbfCw0Onws/bT5t/w8F1quzwoAgs37FU+TG+f9Ak5UpUm8jMQWlpKX744UccOXJEObZq2DCAvtR+kr629qWPIdMwd+5c0BfutF1KLl544UVVSp8+vTF06FBtifPnL6DtVkKQlJSI3bv3qC+6H3/8cTRr1kybxlEPziQfxOpt85CeeRZMGoN7TUXLplXzhTo7Sdu46xvsP/YHLl0uVKr/7f2ehrdnfatwrv5rHup5B6Jbuzv10l7ISsJi0s4eGfcpjWseVm6eg1MJe+jD2TpoR9PGwT0fUceaTCs3vYfA+uFIuXAKR09tIs3LGeOHzgRPj6wJT0eXrHsLyWmxaBTQUrXbycm2W5WdxDEBb9wzn6azA6gqffcE7DL3wx8nU5oJ2EqaJfelW7u7wKReHmH3J5s2baLreQh5FrBM9ra1vDy1V1Ha4stFeGn+f9EurB1ee+AN+Nf1x5aYzXql74rdicdHPol7BkzAp79/gt92rcSjw6epNOybeOKgyWjeuDnZbvLx1aovMGfJu5g58VVtGbkFudh9fBcKigvw5B1PKQJKy07Xxls62L59B+Lj4/G///0XHh4eOH36tPYrbZ7CzJgxXfma+frrb9Qxl2W4a8HFixewb98+5QP4xRdfpN0oi4loqn9I4j97H9mH95vsXtTcL1DLjE9nTYaQwNa4b8Rb8HSvp4LGRk+Hb139famSUo/i17VvaLIgJ/8arheyEjF/2bMY3vcpdSOwfYKnWM9OWgRXl2suUbWZy3mw78hK7D26EncNfB716zXGio3vqfIn3THbakk+XgGIoymMIcmwHcXFxYNcitTGyk1zkJ2XhgdHf4CCwmzVTw83H/Ttcp+2/OzcNDWF7NRqKB4a/ZEiO127kjahiYO1O74gHDzw+IT5YHvMEsIxquVtJlJSkAn3jlEtbsPG3d8SuW1B6/C+evmu4irSL57BgdhVuGfoK9SPdHyz9GlwHibhOs5uamw19rV+Xe5H6ZXLemXwSU5ONjnQP2dxzzFNpuq/ojU1lfN3T9weZOZexJToh+DpVnbhDeo4WK+URvUbo1/7/iqsb9t+ypG5JkGzoHB1yNrQ2dQzCPILwv5TxlOXXHLINZWIycutzEexv49tNo68vDy1RS3vq8SuNsPDy+rjStnZFbuF0BCGoYsITRv518fHh7ZTMT0t0E1XlcehEx7EFUM7x98VWCMYTubp7ovmTXpomxQe0ll7rDngm47JSCOnEndrDrHnyAoipUbw9KinNYD6+TRWBuSube/QpqvowWGyXzRv0lNrKO3ZYSwWLP8X2ZBy4e7qbbHYsMZRWL/ra0pzlYjqN2XgHhf9MtkojiCsUZRyJcuayV2D/oMGvuT8jPzMt43oD65Tl2S4Em8PPwzs8ZDF+owjr+Jkwm7cPWS60vDaNx+E7QcWGSejkDpkdHchUjAUtlf1IU1lE2kzhiSjSdulzQgy7DZWf2y0P5N8gDSygcrWpTu25qZ0Xbt2RaNGjRAWFqYp0uyv3ZJMalYqmtJ2KhqCMdUD9tKnES93bzBhaIS31X3319m0nUsD5c0vOz8bxbSNi6FENIrUEoxhnKXzfv36qiXkV199VRlk+XzEiBFabcZSXt24du3a6p5el+NapC1Vl5MvTQf4AtYljJ2HrhloM3POq4s5PumAJjmaBLW3SgDaxFYOcvIy0Ca8vzZVkH+Z7SOXwq2RTMP6NFWlKUUGTY+OnNyE3IILKKIpRcL5GAzr+wTyCzLpyV4CTZlcCd+IrDkZSkRoN8Mgq+cXss4hvzATDf2vPbRYq2ANxFC4rbVIszIlHVsOwabd83H8zHa0COtplET18+9Qd7e6KCwqM+IbJTQT0KRJE/CfLWK3JMO2k4S0BFyiJ66Lme1UahnMN3U7/Mu2n3Frh1tp58uxKvj33b+R7Wa7bhJ17OHqbhRmSwDvUDB+/N24++5xygfwhx9+pJi9R49rT3h2ZsWe9SwJl3O9Jf6rj5B90LRz844fz7c6Xapse73JBpOVk4KhfR63WJRmesHLt6akjrMrLe0arDxRQi+axmVkJmizZGSVHXv8Pb3TRpg8qIXQRu3I3rKbVrWKEdV8MGJOrMfF7CTSzNoo2wrf2OlUfgPSAFgyaPpnqmye8lgSZ7quDfvmWzcIbjRl5Cmlxn7D5devF2xUVKtmfcB/poRtRX0630tE861JkjE1zTJVjrkwXtTgnTp4XzLehtmSmKZBSzmuU1yniE6KXH7d+jOKLpW9jMbGXFuFDbMazSWd7CwbDqyzNatN6c6ePaumSzw14qkST5nYS56usCpZUFCAhIRrF7xu/I06Dp/2DDrN+97kny3Tpcq2m6cAKbQMfjJhl3apNe1iPLLI4Kkr/IRtHNBC3eQ8fTGUpo07Elmdx/n0E3pREfROB9tVLmYnky2kCPuO/q60DS8Py3toaQoJa9RBLduG0/srbIzetGeBys/2Ct5DrFlwJxw8vpquy3zwOzvHTm9BZGj53yOJCOmK+HP7leaiqZunOs1CuiibCRNQctpxnEs1fd3vjlkGNlSbk06thyvbEU+/qlp27Nip3MquXWv9vrJbTYb3c/rP3S/gg+XvY8WO5WpfJ3dXD8x59H2b8BrVezQ+Wv4hNtK7NEWXCjGixx1ISK+6m33Xrl1Yt2496tevT7sR5KNNmzbo0KGDXttYS+Htaz/77HM1tRo4cCDuukt/1UIvw01ywhrBHbf+m1ZrZqoVGTamsnZw7/DXaGWnoR4Kt93yGDbQuzKr//pErYIM6f0PbbybqxeG9XmS3smZDja0jhvyMpFCb/QiG8z59Dh6X+Q+clrvASYrXtmxVdgus2rbx1RWL/j7hpJtzQVNyB6jkRH9n8EPv7+Id78ZS7twXEJTenGtf7dJmmibf5lM2P7B7xAVX6IdU6f8qqZz/ciA/N3K/yhyZW2OSc2UMLklphzFbb0eNRWtXmC8peN4pc1U9Yt8xcVlD/569XxM1q0bWCPcb/KulKVXStUKk27jbTnOyMlAfe/6yhhrS/rypOElan61n/32WvPzW55yddN+8MGHOHHiBG0e541XXpmprWf//v34+edflO/gadOmXdc3fnXbV7njq6SJpBLRONPKhn/lijKRm20pxaRt+BgQl4mkFQrKyc9QN7IHkVhVCy8181I2t93cDqi21Hm5pAjvfjueCHi6IkNb8tiSZtasd5SGPmvWLKuftNQIkrGl046ahr9buny5RHVPd5fKkpISFBaWPU3c3d20K1mOioP0q+IIZOYk0zSvDup62bZyaq0mJsBXX31NvR/D2zBbEyEZawhJvCAgCFQKAbs1/FaqV5JZEBAE7AYBIRm7GQppiCDgmAgIyTjmuEqvBAG7QUBIxm6GQhoiCDgmAkIyjjmu0itBwG4QEJKxm6GQhggCjomAkIxjjqv0ShCwGwSEZK7DUOTk5NCLc4XXoSbHqeLSpUtgJ+oiNR+Bm4JktmzZqvXsXx1DlpqaCv5QbPdu4w/R+M3cGTNmgr9a1ZXY+K04S46QWNg7HHtxqyphVwT8USB/IMjCTqFOnN1ZVcVfl3L4A9fp02coz4LXpUKppNoQuClIZuHCheobn/KiaIsj8HXr1oG/40hOTiYiMfbJsXXrVnKxGYzAwEC96jfsYveQZR73T5Pn/yXr3tTGF5Bvjx0Hf8EGcp6UX5ilDbf1oDqcQdtat266pUuX4tixY7pBNh/zx6XdunXDH3/8aXMeSWifCNwUJPPee++iefPm5R4BWxyBsxtO9mw3ceL9GDRooF4d/I3HypW/YfBgfY9+eolMnPy65jX6cthb+Zr9nr7GrakSE3MEaWlpFW7+4MGDsH79evWVe4ULkYw3HAG7dfXAT7CMjHRcvJip9h0KDg7Ggw9O0dMIWEs4ceKkcgG4atUqNSUZN24sBgwYoIBl/7rsh5dlypQHVDp1Qv999tlnaNq0KQ4cOKi+Ju3WrSvGjBkDfoLa4gic8585c1ZpSIsX/4wVK1YqB+APPfSgpgp1g2VkZJC/mQhtmC0HWXmp5NJxgHL1+Jee60Xyj0ZuVfirXJ4Krdv5BfmAPagcN7G7gfHks/V6SUxMDFatWq31bcyEMHz4cFU9O1jneO77kiVLVTqOmD79ZfKT66LSsH/YTz/9DPfffx9++ukncqZ+Dl26dMHDDz+k4vm/gIAAlZ79J7dr104bzgc8nXrppbLyXn75Jb04ObEvBOyWZNhRMftrmTx5kvpbuHCRuhifeuopLYLsZ5ddHrBRlS9O9tLF3ro0cu+99yjPdM899y+1c4AmnH/5Bjh+PA5Tpz5Cfnbr4d13y7Sd7t27q72MrDkCnzJlinK4xDsRsHe8qKgoo0/yebrFbXJz03dmxfUP7/tPrdPsFuQYyZc20tJIr6hx+FLtp3NVeZHnT/73x/6JuDM7yA/Lc2hIXvDZf6unWz08df8PVG9t5fxIk99WZ9Ca9OX9ZQ2Nd1pgDe6ZZ55WjrmYNDTCeIwdOwZvvvkWbrmll3KUznG6vo4vX75MxJKE5cuXY9iw4YiMjCDSPqMpQvvL00wmIEOS4TZwnYaOwrQZ5cBuELBbkmGE2E9L//79FVjDhg1Vn5ezIVXjoJsj2GHUpEkTlWc6PmcnUhrRXIDm/HGwkynNNIovYt6pkUmG01tzBK7bBj7WvYE09WdkXICvr2lvbKFB157M7KhJ11lTp9bDlANoNg4fjltHXuc3o2OrIWqrC/acxlJQlE0EWqo2QGN/JpE6/mQ5jS3OoDXtLO8vaxHs8Y+3e2GyYK+AGhy5LN6Vgf8YR/41hQ2nY9ek7MhL4+yrffv2HKwnjB8/EAyFy33kkYeVr2DDODm3LwTs2ibDexJphD2j87JmYmKiJkj98pSHL/KKSHBwY202Ly9PsGZUlcJbo+hqVraWzV7Z2BbDRt8h5AeXt6rgbTJ0d/KL7jVNObSe/c0Y5VmNt7i4XsKkOnXqVOzatRuPPfYP2snybZw8ebLc1bOjr9atr+1oYKoAxo+nTYbCBNarVy/06NHdMErO7QwBu9ZkUlJStHClp2eoJ6PupvMcyQ6bKi61LGa1xRG4pQLYjqR5R6Y8DsN5z59ocjvJwsTCnv+jb5mGBSv+T21UxjsQsltI3qqDHWkfOr5GrU6xm8byOCYqjzNow37yLgv8x9oMryJ9/vkXattc3XTW8ON4jY1GN5/uMV8Dug8D3bj4+DM0Zb2ibGvmtFXd9HJ8YxCwa03m/PnzZDc5rtTqrVvJWXNkJNk3KkMq5QM5rJKOwP39/dGwYUO1m0F5auY9iTTCJMJe753I1yt753dzLdPaeIsOtkuwD9gwcqjN+++wG8vySHmcQeuWyzYwtqewsFvQpk2bmRyXSLKz8BSUp7gVEX4tgKdm5nbUfPvtt5Uza56yidgvAuW7Kq9zP1q2bIkvvvgS7IKS5+9PPvmEzS3gFQn2j8vCdhvesoTVfN4f6c47bXPmXVlH4Px0HTlyBHhLTzYMV0S6th2pdizcfvBntI8chAC/pqoYdqzN23J40QZi/F7MgO4PqE3XylNHeZxB65bLbj/ffnsW4cn2FhcyvrrQ9jDjdZOo4z59+oBX3p555llFiO+8M6tchto1a9ao5X9TWiCTD5OLl5eXno3OqBEScMMRsFv3m/wCXU5OLnhJmOflvLcLq9c1TZgcn3/+Bdon+wmzan9F+8Qv7bGjbN6rpyLyzjuzwVu72OIM2lT5/HqBk1NttQumqfjKhLF97MUX/4vXX3/NpM2Nnau/9trrtIo1lpbOh1WmKslbzQjYtSbDfWdtgKcdNVWYGGfMmKFuxqruA68qVdRTPmsCcXFxGDXqLpNL7La01c/P9MqZLXmtpWHt5c0331DvLZlKm5KSioiICNJ0BpmKljA7QsBuNRn+3oiXSaOjb7MjuBynKaxhaTREXg4WEQSqCwG7JZnq6rCUKwgIAtcXgZpn5Li++EhtgoAgUEkEhGQqCaBkFwQEAcsICMlYxkdiBQFBoJIICMlUEkDJLggIApYREJKxjI/ECgKCQCUREJKpJICSXRAQBCwjYJZk+JVtdjyk+5Gi5aIkVhAQBAQBYwTMvvFbVFRMX9cuU57lhgwZopwQGWeXEEFAEBAELCNg9WW8zZs3Y9my5Zg9+x3LJUmsICAICAImEDA7XdKkZfeH/BWziCAgCAgCFUHAKsnwdy38MR37LhERBAQBQaC8CFglmdDQUOVi4ejRiu2fU94GSXpBQBBwLASs2mS4u+zdbPHixfRVdKHaX6hVq1aOhYL0RhAQBKoNAbOrS7o1LljwHVq0aIEhQ6KV8yjdODkWBAQBQcASAlanS7znDb8rw5umsdd4dmEpIggIAoKArQhYJZmCgny1b871dOBta+MlnSAgCNg/AlZJhvcyrui+RvbffWmhICAIVDcCZuc+7Mj5k0/mqb2OBw68tbrbIeULAoKAgyJgdnWJ98pJSEhQ26ya22rVQTGRbgkCgkAVImCWZKqwDilKEBAEbmIErNpkbmJspOuCgCBQBQgIyVQBiFKEICAImEdASMY8NhIjCAgCVYCAkEwVgChFCAKCgHkEhGTMYyMxgoAgUAUICMlUAYhShCAgCJhHQEjGPDYSIwgIAlWAgJBMFYAoRQgCgoB5BIRkzGMjMYKAIFAFCAjJVAGIUoQgIAiYR+D/ATVlKsy81VmyAAAAAElFTkSuQmCC;" vertex="1" parent="1">
          <mxGeometry x="40" y="80" width="281" height="133" as="geometry" />
        </mxCell>
        <mxCell id="DEd523hwMIVkpMCxUQCg-3" style="edgeStyle=orthogonalEdgeStyle;rounded=0;orthogonalLoop=1;jettySize=auto;html=1;shape=flexArrow;fillColor=#dae8fc;strokeColor=#6c8ebf;" edge="1" parent="1" source="DEd523hwMIVkpMCxUQCg-2">
          <mxGeometry relative="1" as="geometry">
            <mxPoint x="100" y="280" as="targetPoint" />
            <Array as="points">
              <mxPoint x="100" y="280" />
            </Array>
          </mxGeometry>
        </mxCell>
        <mxCell id="DEd523hwMIVkpMCxUQCg-2" value="" style="rounded=0;whiteSpace=wrap;html=1;fillColor=none;" vertex="1" parent="1">
          <mxGeometry x="40" y="80" width="280" height="130" as="geometry" />
        </mxCell>
        <mxCell id="DEd523hwMIVkpMCxUQCg-4" value="&lt;font style=&quot;font-size: 16px&quot;&gt;$gcc hello.c&lt;/font&gt;" style="text;html=1;align=center;verticalAlign=middle;resizable=0;points=[];autosize=1;" vertex="1" parent="1">
          <mxGeometry x="130" y="230" width="100" height="20" as="geometry" />
        </mxCell>
        <mxCell id="DEd523hwMIVkpMCxUQCg-7" style="edgeStyle=orthogonalEdgeStyle;shape=flexArrow;rounded=0;orthogonalLoop=1;jettySize=auto;html=1;entryX=0;entryY=0.692;entryDx=0;entryDy=0;entryPerimeter=0;" edge="1" parent="1" source="DEd523hwMIVkpMCxUQCg-5" target="DEd523hwMIVkpMCxUQCg-8">
          <mxGeometry relative="1" as="geometry">
            <mxPoint x="230" y="310" as="targetPoint" />
          </mxGeometry>
        </mxCell>
        <mxCell id="DEd523hwMIVkpMCxUQCg-5" value="&lt;font style=&quot;font-size: 14px&quot;&gt;Executable&lt;br&gt;(a.out)&lt;/font&gt;" style="rounded=0;whiteSpace=wrap;html=1;fillColor=#e1d5e7;strokeColor=#9673a6;" vertex="1" parent="1">
          <mxGeometry x="40" y="280" width="120" height="80" as="geometry" />
        </mxCell>
        <mxCell id="DEd523hwMIVkpMCxUQCg-6" value="&lt;font style=&quot;font-size: 14px&quot;&gt;&lt;br&gt;&lt;br&gt;Executes&amp;nbsp;&lt;br&gt;from&lt;br&gt;RAM&lt;/font&gt;" style="html=1;shadow=0;dashed=0;align=center;verticalAlign=middle;shape=mxgraph.arrows2.calloutArrow;dy=10;dx=20;notch=60;arrowHead=10;fillColor=#dae8fc;direction=north;strokeColor=#6c8ebf;" vertex="1" parent="1">
          <mxGeometry x="225" y="370" width="100" height="100" as="geometry" />
        </mxCell>
        <mxCell id="DEd523hwMIVkpMCxUQCg-8" value="Process" style="rounded=0;whiteSpace=wrap;html=1;fillColor=#e1d5e7;strokeColor=#9673a6;" vertex="1" parent="1">
          <mxGeometry x="230" y="230" width="90" height="130" as="geometry" />
        </mxCell>
        <mxCell id="DEd523hwMIVkpMCxUQCg-10" value="&lt;font style=&quot;font-size: 16px&quot;&gt;&lt;br&gt;&lt;br&gt;Stored on &lt;br&gt;hard disk&lt;/font&gt;" style="html=1;shadow=0;dashed=0;align=center;verticalAlign=middle;shape=mxgraph.arrows2.calloutArrow;dy=10;dx=20;notch=60;arrowHead=10;fillColor=#dae8fc;direction=north;strokeColor=#6c8ebf;" vertex="1" parent="1">
          <mxGeometry x="50" y="370" width="100" height="100" as="geometry" />
        </mxCell>
      </root>
    </mxGraphModel>
  </diagram>
</mxfile>
